<?xml version="1.0" encoding="utf-8" standalone="no"?>
<!DOCTYPE svg PUBLIC "-//W3C//DTD SVG 1.1//EN"
  "http://www.w3.org/Graphics/SVG/1.1/DTD/svg11.dtd">
<svg xmlns:xlink="http://www.w3.org/1999/xlink" width="460.8pt" height="345.6pt" viewBox="0 0 460.8 345.6" xmlns="http://www.w3.org/2000/svg" version="1.1">
 <metadata>
  <rdf:RDF xmlns:dc="http://purl.org/dc/elements/1.1/" xmlns:cc="http://creativecommons.org/ns#" xmlns:rdf="http://www.w3.org/1999/02/22-rdf-syntax-ns#">
   <cc:Work>
    <dc:type rdf:resource="http://purl.org/dc/dcmitype/StillImage"/>
    <dc:date>2023-10-02T17:38:50.544985</dc:date>
    <dc:format>image/svg+xml</dc:format>
    <dc:creator>
     <cc:Agent>
      <dc:title>Matplotlib v3.7.1, https://matplotlib.org/</dc:title>
     </cc:Agent>
    </dc:creator>
   </cc:Work>
  </rdf:RDF>
 </metadata>
 <defs>
  <style type="text/css">*{stroke-linejoin: round; stroke-linecap: butt}</style>
 </defs>
 <g id="figure_1">
  <g id="patch_1">
   <path d="M 0 345.6 
L 460.8 345.6 
L 460.8 0 
L 0 0 
z
" style="fill: #ffffff"/>
  </g>
  <g id="axes_1">
   <g id="patch_2">
    <path d="M 10.8 334.8 
L 450 334.8 
L 450 10.8 
L 10.8 10.8 
z
" style="fill: #ffffff"/>
   </g>
   <g id="PathCollection_1">
    <defs>
     <path id="mcf31805143" d="M 0 3 
C 0.795609 3 1.55874 2.683901 2.12132 2.12132 
C 2.683901 1.55874 3 0.795609 3 0 
C 3 -0.795609 2.683901 -1.55874 2.12132 -2.12132 
C 1.55874 -2.683901 0.795609 -3 0 -3 
C -0.795609 -3 -1.55874 -2.683901 -2.12132 -2.12132 
C -2.683901 -1.55874 -3 -0.795609 -3 0 
C -3 0.795609 -2.683901 1.55874 -2.12132 2.12132 
C -1.55874 2.683901 -0.795609 3 0 3 
z
" style="stroke: #008000"/>
    </defs>
    <g clip-path="url(#p4a7c214a30)">
     <use xlink:href="#mcf31805143" x="274.32" y="172.8" style="fill: #008000; stroke: #008000"/>
     <use xlink:href="#mcf31805143" x="261.3636" y="172.8" style="fill: #008000; stroke: #008000"/>
     <use xlink:href="#mcf31805143" x="268.765551" y="172.8" style="fill: #008000; stroke: #008000"/>
     <use xlink:href="#mcf31805143" x="267.658516" y="172.8" style="fill: #008000; stroke: #008000"/>
     <use xlink:href="#mcf31805143" x="268.308078" y="172.8" style="fill: #008000; stroke: #008000"/>
     <use xlink:href="#mcf31805143" x="267.949586" y="172.8" style="fill: #008000; stroke: #008000"/>
     <use xlink:href="#mcf31805143" x="268.155306" y="172.8" style="fill: #008000; stroke: #008000"/>
     <use xlink:href="#mcf31805143" x="268.03964" y="172.8" style="fill: #008000; stroke: #008000"/>
     <use xlink:href="#mcf31805143" x="268.105461" y="172.8" style="fill: #008000; stroke: #008000"/>
     <use xlink:href="#mcf31805143" x="268.068253" y="172.8" style="fill: #008000; stroke: #008000"/>
     <use xlink:href="#mcf31805143" x="268.089367" y="172.8" style="fill: #008000; stroke: #008000"/>
     <use xlink:href="#mcf31805143" x="268.077412" y="172.8" style="fill: #008000; stroke: #008000"/>
     <use xlink:href="#mcf31805143" x="268.084189" y="172.8" style="fill: #008000; stroke: #008000"/>
     <use xlink:href="#mcf31805143" x="268.08035" y="172.8" style="fill: #008000; stroke: #008000"/>
     <use xlink:href="#mcf31805143" x="268.082526" y="172.8" style="fill: #008000; stroke: #008000"/>
     <use xlink:href="#mcf31805143" x="268.081293" y="172.8" style="fill: #008000; stroke: #008000"/>
     <use xlink:href="#mcf31805143" x="268.081992" y="172.8" style="fill: #008000; stroke: #008000"/>
     <use xlink:href="#mcf31805143" x="268.081596" y="172.8" style="fill: #008000; stroke: #008000"/>
     <use xlink:href="#mcf31805143" x="268.08182" y="172.8" style="fill: #008000; stroke: #008000"/>
     <use xlink:href="#mcf31805143" x="268.081693" y="172.8" style="fill: #008000; stroke: #008000"/>
     <use xlink:href="#mcf31805143" x="268.081765" y="172.8" style="fill: #008000; stroke: #008000"/>
     <use xlink:href="#mcf31805143" x="268.081724" y="172.8" style="fill: #008000; stroke: #008000"/>
     <use xlink:href="#mcf31805143" x="268.081747" y="172.8" style="fill: #008000; stroke: #008000"/>
     <use xlink:href="#mcf31805143" x="268.081734" y="172.8" style="fill: #008000; stroke: #008000"/>
     <use xlink:href="#mcf31805143" x="268.081741" y="172.8" style="fill: #008000; stroke: #008000"/>
     <use xlink:href="#mcf31805143" x="268.081737" y="172.8" style="fill: #008000; stroke: #008000"/>
     <use xlink:href="#mcf31805143" x="268.08174" y="172.8" style="fill: #008000; stroke: #008000"/>
     <use xlink:href="#mcf31805143" x="268.081738" y="172.8" style="fill: #008000; stroke: #008000"/>
     <use xlink:href="#mcf31805143" x="268.081739" y="172.8" style="fill: #008000; stroke: #008000"/>
     <use xlink:href="#mcf31805143" x="268.081739" y="172.8" style="fill: #008000; stroke: #008000"/>
     <use xlink:href="#mcf31805143" x="268.081739" y="172.8" style="fill: #008000; stroke: #008000"/>
    </g>
   </g>
   <g id="matplotlib.axis_1">
    <g id="xtick_1">
     <g id="line2d_1">
      <defs>
       <path id="m34702ac48c" d="M 0 0 
L 0 3.5 
" style="stroke: #000000; stroke-width: 0.8"/>
      </defs>
      <g>
       <use xlink:href="#m34702ac48c" x="54.72" y="172.8" style="stroke: #000000; stroke-width: 0.8"/>
      </g>
     </g>
     <g id="text_1">
      <!-- −10 -->
      <g transform="translate(44.167656 187.398437) scale(0.1 -0.1)">
       <defs>
        <path id="DejaVuSans-2212" d="M 678 2272 
L 4684 2272 
L 4684 1741 
L 678 1741 
L 678 2272 
z
" transform="scale(0.015625)"/>
        <path id="DejaVuSans-31" d="M 794 531 
L 1825 531 
L 1825 4091 
L 703 3866 
L 703 4441 
L 1819 4666 
L 2450 4666 
L 2450 531 
L 3481 531 
L 3481 0 
L 794 0 
L 794 531 
z
" transform="scale(0.015625)"/>
        <path id="DejaVuSans-30" d="M 2034 4250 
Q 1547 4250 1301 3770 
Q 1056 3291 1056 2328 
Q 1056 1369 1301 889 
Q 1547 409 2034 409 
Q 2525 409 2770 889 
Q 3016 1369 3016 2328 
Q 3016 3291 2770 3770 
Q 2525 4250 2034 4250 
z
M 2034 4750 
Q 2819 4750 3233 4129 
Q 3647 3509 3647 2328 
Q 3647 1150 3233 529 
Q 2819 -91 2034 -91 
Q 1250 -91 836 529 
Q 422 1150 422 2328 
Q 422 3509 836 4129 
Q 1250 4750 2034 4750 
z
" transform="scale(0.015625)"/>
       </defs>
       <use xlink:href="#DejaVuSans-2212"/>
       <use xlink:href="#DejaVuSans-31" x="83.789062"/>
       <use xlink:href="#DejaVuSans-30" x="147.412109"/>
      </g>
     </g>
    </g>
    <g id="xtick_2">
     <g id="line2d_2">
      <g>
       <use xlink:href="#m34702ac48c" x="142.56" y="172.8" style="stroke: #000000; stroke-width: 0.8"/>
      </g>
     </g>
     <g id="text_2">
      <!-- −5 -->
      <g transform="translate(135.188906 187.398437) scale(0.1 -0.1)">
       <defs>
        <path id="DejaVuSans-35" d="M 691 4666 
L 3169 4666 
L 3169 4134 
L 1269 4134 
L 1269 2991 
Q 1406 3038 1543 3061 
Q 1681 3084 1819 3084 
Q 2600 3084 3056 2656 
Q 3513 2228 3513 1497 
Q 3513 744 3044 326 
Q 2575 -91 1722 -91 
Q 1428 -91 1123 -41 
Q 819 9 494 109 
L 494 744 
Q 775 591 1075 516 
Q 1375 441 1709 441 
Q 2250 441 2565 725 
Q 2881 1009 2881 1497 
Q 2881 1984 2565 2268 
Q 2250 2553 1709 2553 
Q 1456 2553 1204 2497 
Q 953 2441 691 2322 
L 691 4666 
z
" transform="scale(0.015625)"/>
       </defs>
       <use xlink:href="#DejaVuSans-2212"/>
       <use xlink:href="#DejaVuSans-35" x="83.789062"/>
      </g>
     </g>
    </g>
    <g id="xtick_3">
     <g id="line2d_3">
      <g>
       <use xlink:href="#m34702ac48c" x="230.4" y="172.8" style="stroke: #000000; stroke-width: 0.8"/>
      </g>
     </g>
     <g id="text_3">
      <!-- 0 -->
      <g transform="translate(227.21875 187.398437) scale(0.1 -0.1)">
       <use xlink:href="#DejaVuSans-30"/>
      </g>
     </g>
    </g>
    <g id="xtick_4">
     <g id="line2d_4">
      <g>
       <use xlink:href="#m34702ac48c" x="318.24" y="172.8" style="stroke: #000000; stroke-width: 0.8"/>
      </g>
     </g>
     <g id="text_4">
      <!-- 5 -->
      <g transform="translate(315.05875 187.398437) scale(0.1 -0.1)">
       <use xlink:href="#DejaVuSans-35"/>
      </g>
     </g>
    </g>
    <g id="xtick_5">
     <g id="line2d_5">
      <g>
       <use xlink:href="#m34702ac48c" x="406.08" y="172.8" style="stroke: #000000; stroke-width: 0.8"/>
      </g>
     </g>
     <g id="text_5">
      <!-- 10 -->
      <g transform="translate(399.7175 187.398437) scale(0.1 -0.1)">
       <use xlink:href="#DejaVuSans-31"/>
       <use xlink:href="#DejaVuSans-30" x="63.623047"/>
      </g>
     </g>
    </g>
   </g>
   <g id="matplotlib.axis_2">
    <g id="ytick_1">
     <g id="line2d_6">
      <defs>
       <path id="m1a85b1c1dd" d="M 0 0 
L -3.5 0 
" style="stroke: #000000; stroke-width: 0.8"/>
      </defs>
      <g>
       <use xlink:href="#m1a85b1c1dd" x="230.4" y="302.4" style="stroke: #000000; stroke-width: 0.8"/>
      </g>
     </g>
     <g id="text_6">
      <!-- −10 -->
      <g transform="translate(202.295312 306.199219) scale(0.1 -0.1)">
       <use xlink:href="#DejaVuSans-2212"/>
       <use xlink:href="#DejaVuSans-31" x="83.789062"/>
       <use xlink:href="#DejaVuSans-30" x="147.412109"/>
      </g>
     </g>
    </g>
    <g id="ytick_2">
     <g id="line2d_7">
      <g>
       <use xlink:href="#m1a85b1c1dd" x="230.4" y="237.6" style="stroke: #000000; stroke-width: 0.8"/>
      </g>
     </g>
     <g id="text_7">
      <!-- −5 -->
      <g transform="translate(208.657813 241.399219) scale(0.1 -0.1)">
       <use xlink:href="#DejaVuSans-2212"/>
       <use xlink:href="#DejaVuSans-35" x="83.789062"/>
      </g>
     </g>
    </g>
    <g id="ytick_3">
     <g id="line2d_8">
      <g>
       <use xlink:href="#m1a85b1c1dd" x="230.4" y="172.8" style="stroke: #000000; stroke-width: 0.8"/>
      </g>
     </g>
     <g id="text_8">
      <!-- 0 -->
      <g transform="translate(217.0375 176.599219) scale(0.1 -0.1)">
       <use xlink:href="#DejaVuSans-30"/>
      </g>
     </g>
    </g>
    <g id="ytick_4">
     <g id="line2d_9">
      <g>
       <use xlink:href="#m1a85b1c1dd" x="230.4" y="108" style="stroke: #000000; stroke-width: 0.8"/>
      </g>
     </g>
     <g id="text_9">
      <!-- 5 -->
      <g transform="translate(217.0375 111.799219) scale(0.1 -0.1)">
       <use xlink:href="#DejaVuSans-35"/>
      </g>
     </g>
    </g>
    <g id="ytick_5">
     <g id="line2d_10">
      <g>
       <use xlink:href="#m1a85b1c1dd" x="230.4" y="43.2" style="stroke: #000000; stroke-width: 0.8"/>
      </g>
     </g>
     <g id="text_10">
      <!-- 10 -->
      <g transform="translate(210.675 46.999219) scale(0.1 -0.1)">
       <use xlink:href="#DejaVuSans-31"/>
       <use xlink:href="#DejaVuSans-30" x="63.623047"/>
      </g>
     </g>
    </g>
   </g>
   <g id="line2d_11">
    <path d="M 210.962314 346.6 
L 212.594595 319.073434 
L 214.353153 293.226818 
L 216.111712 271.073596 
L 217.87027 252.379787 
L 219.189189 240.488915 
L 220.508108 230.313637 
L 221.827027 221.755243 
L 223.145946 214.715022 
L 224.464865 209.094262 
L 225.344144 206.086933 
L 226.223423 203.637356 
L 227.102703 201.716285 
L 227.981982 200.294471 
L 228.861261 199.342667 
L 229.740541 198.831626 
L 230.61982 198.732098 
L 231.499099 199.014838 
L 232.378378 199.650596 
L 233.257658 200.610127 
L 234.136937 201.864181 
L 235.455856 204.233515 
L 236.774775 207.10101 
L 238.533333 211.528642 
L 241.171171 218.989755 
L 245.567568 231.660875 
L 247.326126 236.129454 
L 248.645045 239.038408 
L 249.963964 241.458413 
L 250.843243 242.751367 
L 251.722523 243.753891 
L 252.601802 244.436739 
L 253.481081 244.770662 
L 254.36036 244.726412 
L 255.23964 244.274743 
L 256.118919 243.386407 
L 256.998198 242.032155 
L 257.877477 240.18274 
L 258.756757 237.808915 
L 259.636036 234.881432 
L 260.515315 231.371043 
L 261.834234 224.948533 
L 263.153153 217.049966 
L 264.472072 207.576632 
L 265.790991 196.42982 
L 267.10991 183.51082 
L 268.428829 168.720921 
L 270.187387 145.920155 
L 271.945946 119.38388 
L 273.704505 88.878112 
L 275.463063 54.168872 
L 277.221622 15.022177 
L 277.885688 -1 
L 277.885688 -1 
" clip-path="url(#p4a7c214a30)" style="fill: none; stroke: #0000ff; stroke-width: 1.5; stroke-linecap: square"/>
   </g>
   <g id="patch_3">
    <path d="M 230.4 334.8 
L 230.4 10.8 
" style="fill: none; stroke: #000000; stroke-width: 0.8; stroke-linejoin: miter; stroke-linecap: square"/>
   </g>
   <g id="patch_4">
    <path d="M 450 334.8 
L 450 10.8 
" style="fill: none"/>
   </g>
   <g id="patch_5">
    <path d="M 10.8 172.8 
L 450 172.8 
" style="fill: none; stroke: #000000; stroke-width: 0.8; stroke-linejoin: miter; stroke-linecap: square"/>
   </g>
   <g id="patch_6">
    <path d="M 10.8 10.8 
L 450 10.8 
" style="fill: none"/>
   </g>
   <g id="text_11">
    <!-- $x_1$ -->
    <g transform="translate(276.0768 171.504) scale(0.1 -0.1)">
     <defs>
      <path id="DejaVuSans-Oblique-78" d="M 3841 3500 
L 2234 1784 
L 3219 0 
L 2559 0 
L 1819 1388 
L 531 0 
L -166 0 
L 1556 1844 
L 641 3500 
L 1300 3500 
L 1972 2234 
L 3144 3500 
L 3841 3500 
z
" transform="scale(0.015625)"/>
     </defs>
     <use xlink:href="#DejaVuSans-Oblique-78" transform="translate(0 0.3125)"/>
     <use xlink:href="#DejaVuSans-31" transform="translate(59.179688 -16.09375) scale(0.7)"/>
    </g>
   </g>
   <g id="text_12">
    <!-- $x_2$ -->
    <g transform="translate(263.1204 171.504) scale(0.1 -0.1)">
     <defs>
      <path id="DejaVuSans-32" d="M 1228 531 
L 3431 531 
L 3431 0 
L 469 0 
L 469 531 
Q 828 903 1448 1529 
Q 2069 2156 2228 2338 
Q 2531 2678 2651 2914 
Q 2772 3150 2772 3378 
Q 2772 3750 2511 3984 
Q 2250 4219 1831 4219 
Q 1534 4219 1204 4116 
Q 875 4013 500 3803 
L 500 4441 
Q 881 4594 1212 4672 
Q 1544 4750 1819 4750 
Q 2544 4750 2975 4387 
Q 3406 4025 3406 3419 
Q 3406 3131 3298 2873 
Q 3191 2616 2906 2266 
Q 2828 2175 2409 1742 
Q 1991 1309 1228 531 
z
" transform="scale(0.015625)"/>
     </defs>
     <use xlink:href="#DejaVuSans-Oblique-78" transform="translate(0 0.3125)"/>
     <use xlink:href="#DejaVuSans-32" transform="translate(59.179688 -16.09375) scale(0.7)"/>
    </g>
   </g>
   <g id="text_13">
    <!-- $x_3$ -->
    <g transform="translate(270.522351 171.504) scale(0.1 -0.1)">
     <defs>
      <path id="DejaVuSans-33" d="M 2597 2516 
Q 3050 2419 3304 2112 
Q 3559 1806 3559 1356 
Q 3559 666 3084 287 
Q 2609 -91 1734 -91 
Q 1441 -91 1130 -33 
Q 819 25 488 141 
L 488 750 
Q 750 597 1062 519 
Q 1375 441 1716 441 
Q 2309 441 2620 675 
Q 2931 909 2931 1356 
Q 2931 1769 2642 2001 
Q 2353 2234 1838 2234 
L 1294 2234 
L 1294 2753 
L 1863 2753 
Q 2328 2753 2575 2939 
Q 2822 3125 2822 3475 
Q 2822 3834 2567 4026 
Q 2313 4219 1838 4219 
Q 1578 4219 1281 4162 
Q 984 4106 628 3988 
L 628 4550 
Q 988 4650 1302 4700 
Q 1616 4750 1894 4750 
Q 2613 4750 3031 4423 
Q 3450 4097 3450 3541 
Q 3450 3153 3228 2886 
Q 3006 2619 2597 2516 
z
" transform="scale(0.015625)"/>
     </defs>
     <use xlink:href="#DejaVuSans-Oblique-78" transform="translate(0 0.3125)"/>
     <use xlink:href="#DejaVuSans-33" transform="translate(59.179688 -16.09375) scale(0.7)"/>
    </g>
   </g>
   <g id="text_14">
    <!-- $x_4$ -->
    <g transform="translate(269.415316 171.504) scale(0.1 -0.1)">
     <defs>
      <path id="DejaVuSans-34" d="M 2419 4116 
L 825 1625 
L 2419 1625 
L 2419 4116 
z
M 2253 4666 
L 3047 4666 
L 3047 1625 
L 3713 1625 
L 3713 1100 
L 3047 1100 
L 3047 0 
L 2419 0 
L 2419 1100 
L 313 1100 
L 313 1709 
L 2253 4666 
z
" transform="scale(0.015625)"/>
     </defs>
     <use xlink:href="#DejaVuSans-Oblique-78" transform="translate(0 0.3125)"/>
     <use xlink:href="#DejaVuSans-34" transform="translate(59.179688 -16.09375) scale(0.7)"/>
    </g>
   </g>
   <g id="text_15">
    <!-- $x_5$ -->
    <g transform="translate(270.064878 171.504) scale(0.1 -0.1)">
     <use xlink:href="#DejaVuSans-Oblique-78" transform="translate(0 0.3125)"/>
     <use xlink:href="#DejaVuSans-35" transform="translate(59.179688 -16.09375) scale(0.7)"/>
    </g>
   </g>
   <g id="text_16">
    <!-- $x_6$ -->
    <g transform="translate(269.706386 171.504) scale(0.1 -0.1)">
     <defs>
      <path id="DejaVuSans-36" d="M 2113 2584 
Q 1688 2584 1439 2293 
Q 1191 2003 1191 1497 
Q 1191 994 1439 701 
Q 1688 409 2113 409 
Q 2538 409 2786 701 
Q 3034 994 3034 1497 
Q 3034 2003 2786 2293 
Q 2538 2584 2113 2584 
z
M 3366 4563 
L 3366 3988 
Q 3128 4100 2886 4159 
Q 2644 4219 2406 4219 
Q 1781 4219 1451 3797 
Q 1122 3375 1075 2522 
Q 1259 2794 1537 2939 
Q 1816 3084 2150 3084 
Q 2853 3084 3261 2657 
Q 3669 2231 3669 1497 
Q 3669 778 3244 343 
Q 2819 -91 2113 -91 
Q 1303 -91 875 529 
Q 447 1150 447 2328 
Q 447 3434 972 4092 
Q 1497 4750 2381 4750 
Q 2619 4750 2861 4703 
Q 3103 4656 3366 4563 
z
" transform="scale(0.015625)"/>
     </defs>
     <use xlink:href="#DejaVuSans-Oblique-78" transform="translate(0 0.3125)"/>
     <use xlink:href="#DejaVuSans-36" transform="translate(59.179688 -16.09375) scale(0.7)"/>
    </g>
   </g>
   <g id="text_17">
    <!-- $x_7$ -->
    <g transform="translate(269.912106 171.504) scale(0.1 -0.1)">
     <defs>
      <path id="DejaVuSans-37" d="M 525 4666 
L 3525 4666 
L 3525 4397 
L 1831 0 
L 1172 0 
L 2766 4134 
L 525 4134 
L 525 4666 
z
" transform="scale(0.015625)"/>
     </defs>
     <use xlink:href="#DejaVuSans-Oblique-78" transform="translate(0 0.3125)"/>
     <use xlink:href="#DejaVuSans-37" transform="translate(59.179688 -16.09375) scale(0.7)"/>
    </g>
   </g>
   <g id="text_18">
    <!-- $x_8$ -->
    <g transform="translate(269.79644 171.504) scale(0.1 -0.1)">
     <defs>
      <path id="DejaVuSans-38" d="M 2034 2216 
Q 1584 2216 1326 1975 
Q 1069 1734 1069 1313 
Q 1069 891 1326 650 
Q 1584 409 2034 409 
Q 2484 409 2743 651 
Q 3003 894 3003 1313 
Q 3003 1734 2745 1975 
Q 2488 2216 2034 2216 
z
M 1403 2484 
Q 997 2584 770 2862 
Q 544 3141 544 3541 
Q 544 4100 942 4425 
Q 1341 4750 2034 4750 
Q 2731 4750 3128 4425 
Q 3525 4100 3525 3541 
Q 3525 3141 3298 2862 
Q 3072 2584 2669 2484 
Q 3125 2378 3379 2068 
Q 3634 1759 3634 1313 
Q 3634 634 3220 271 
Q 2806 -91 2034 -91 
Q 1263 -91 848 271 
Q 434 634 434 1313 
Q 434 1759 690 2068 
Q 947 2378 1403 2484 
z
M 1172 3481 
Q 1172 3119 1398 2916 
Q 1625 2713 2034 2713 
Q 2441 2713 2670 2916 
Q 2900 3119 2900 3481 
Q 2900 3844 2670 4047 
Q 2441 4250 2034 4250 
Q 1625 4250 1398 4047 
Q 1172 3844 1172 3481 
z
" transform="scale(0.015625)"/>
     </defs>
     <use xlink:href="#DejaVuSans-Oblique-78" transform="translate(0 0.3125)"/>
     <use xlink:href="#DejaVuSans-38" transform="translate(59.179688 -16.09375) scale(0.7)"/>
    </g>
   </g>
   <g id="text_19">
    <!-- $x_9$ -->
    <g transform="translate(269.862261 171.504) scale(0.1 -0.1)">
     <defs>
      <path id="DejaVuSans-39" d="M 703 97 
L 703 672 
Q 941 559 1184 500 
Q 1428 441 1663 441 
Q 2288 441 2617 861 
Q 2947 1281 2994 2138 
Q 2813 1869 2534 1725 
Q 2256 1581 1919 1581 
Q 1219 1581 811 2004 
Q 403 2428 403 3163 
Q 403 3881 828 4315 
Q 1253 4750 1959 4750 
Q 2769 4750 3195 4129 
Q 3622 3509 3622 2328 
Q 3622 1225 3098 567 
Q 2575 -91 1691 -91 
Q 1453 -91 1209 -44 
Q 966 3 703 97 
z
M 1959 2075 
Q 2384 2075 2632 2365 
Q 2881 2656 2881 3163 
Q 2881 3666 2632 3958 
Q 2384 4250 1959 4250 
Q 1534 4250 1286 3958 
Q 1038 3666 1038 3163 
Q 1038 2656 1286 2365 
Q 1534 2075 1959 2075 
z
" transform="scale(0.015625)"/>
     </defs>
     <use xlink:href="#DejaVuSans-Oblique-78" transform="translate(0 0.3125)"/>
     <use xlink:href="#DejaVuSans-39" transform="translate(59.179688 -16.09375) scale(0.7)"/>
    </g>
   </g>
   <g id="text_20">
    <!-- $x_10$ -->
    <g transform="translate(269.825053 171.504) scale(0.1 -0.1)">
     <use xlink:href="#DejaVuSans-Oblique-78" transform="translate(0 0.78125)"/>
     <use xlink:href="#DejaVuSans-31" transform="translate(59.179688 -15.625) scale(0.7)"/>
     <use xlink:href="#DejaVuSans-30" transform="translate(106.450195 0.78125)"/>
    </g>
   </g>
   <g id="text_21">
    <!-- $x_11$ -->
    <g transform="translate(269.846167 171.504) scale(0.1 -0.1)">
     <use xlink:href="#DejaVuSans-Oblique-78" transform="translate(0 0.09375)"/>
     <use xlink:href="#DejaVuSans-31" transform="translate(59.179688 -16.3125) scale(0.7)"/>
     <use xlink:href="#DejaVuSans-31" transform="translate(106.450195 0.09375)"/>
    </g>
   </g>
   <g id="text_22">
    <!-- $x_12$ -->
    <g transform="translate(269.834212 171.504) scale(0.1 -0.1)">
     <use xlink:href="#DejaVuSans-Oblique-78" transform="translate(0 0.78125)"/>
     <use xlink:href="#DejaVuSans-31" transform="translate(59.179688 -15.625) scale(0.7)"/>
     <use xlink:href="#DejaVuSans-32" transform="translate(106.450195 0.78125)"/>
    </g>
   </g>
   <g id="text_23">
    <!-- $x_13$ -->
    <g transform="translate(269.840989 171.504) scale(0.1 -0.1)">
     <use xlink:href="#DejaVuSans-Oblique-78" transform="translate(0 0.78125)"/>
     <use xlink:href="#DejaVuSans-31" transform="translate(59.179688 -15.625) scale(0.7)"/>
     <use xlink:href="#DejaVuSans-33" transform="translate(106.450195 0.78125)"/>
    </g>
   </g>
   <g id="text_24">
    <!-- $x_14$ -->
    <g transform="translate(269.83715 171.504) scale(0.1 -0.1)">
     <use xlink:href="#DejaVuSans-Oblique-78" transform="translate(0 0.09375)"/>
     <use xlink:href="#DejaVuSans-31" transform="translate(59.179688 -16.3125) scale(0.7)"/>
     <use xlink:href="#DejaVuSans-34" transform="translate(106.450195 0.09375)"/>
    </g>
   </g>
   <g id="text_25">
    <!-- $x_15$ -->
    <g transform="translate(269.839326 171.504) scale(0.1 -0.1)">
     <use xlink:href="#DejaVuSans-Oblique-78" transform="translate(0 0.09375)"/>
     <use xlink:href="#DejaVuSans-31" transform="translate(59.179688 -16.3125) scale(0.7)"/>
     <use xlink:href="#DejaVuSans-35" transform="translate(106.450195 0.09375)"/>
    </g>
   </g>
   <g id="text_26">
    <!-- $x_16$ -->
    <g transform="translate(269.838093 171.504) scale(0.1 -0.1)">
     <use xlink:href="#DejaVuSans-Oblique-78" transform="translate(0 0.78125)"/>
     <use xlink:href="#DejaVuSans-31" transform="translate(59.179688 -15.625) scale(0.7)"/>
     <use xlink:href="#DejaVuSans-36" transform="translate(106.450195 0.78125)"/>
    </g>
   </g>
   <g id="text_27">
    <!-- $x_17$ -->
    <g transform="translate(269.838792 171.504) scale(0.1 -0.1)">
     <use xlink:href="#DejaVuSans-Oblique-78" transform="translate(0 0.09375)"/>
     <use xlink:href="#DejaVuSans-31" transform="translate(59.179688 -16.3125) scale(0.7)"/>
     <use xlink:href="#DejaVuSans-37" transform="translate(106.450195 0.09375)"/>
    </g>
   </g>
   <g id="text_28">
    <!-- $x_18$ -->
    <g transform="translate(269.838396 171.504) scale(0.1 -0.1)">
     <use xlink:href="#DejaVuSans-Oblique-78" transform="translate(0 0.78125)"/>
     <use xlink:href="#DejaVuSans-31" transform="translate(59.179688 -15.625) scale(0.7)"/>
     <use xlink:href="#DejaVuSans-38" transform="translate(106.450195 0.78125)"/>
    </g>
   </g>
   <g id="text_29">
    <!-- $x_19$ -->
    <g transform="translate(269.83862 171.504) scale(0.1 -0.1)">
     <use xlink:href="#DejaVuSans-Oblique-78" transform="translate(0 0.78125)"/>
     <use xlink:href="#DejaVuSans-31" transform="translate(59.179688 -15.625) scale(0.7)"/>
     <use xlink:href="#DejaVuSans-39" transform="translate(106.450195 0.78125)"/>
    </g>
   </g>
   <g id="text_30">
    <!-- $x_20$ -->
    <g transform="translate(269.838493 171.504) scale(0.1 -0.1)">
     <use xlink:href="#DejaVuSans-Oblique-78" transform="translate(0 0.78125)"/>
     <use xlink:href="#DejaVuSans-32" transform="translate(59.179688 -15.625) scale(0.7)"/>
     <use xlink:href="#DejaVuSans-30" transform="translate(106.450195 0.78125)"/>
    </g>
   </g>
   <g id="text_31">
    <!-- $x_21$ -->
    <g transform="translate(269.838565 171.504) scale(0.1 -0.1)">
     <use xlink:href="#DejaVuSans-Oblique-78" transform="translate(0 0.09375)"/>
     <use xlink:href="#DejaVuSans-32" transform="translate(59.179688 -16.3125) scale(0.7)"/>
     <use xlink:href="#DejaVuSans-31" transform="translate(106.450195 0.09375)"/>
    </g>
   </g>
   <g id="text_32">
    <!-- $x_22$ -->
    <g transform="translate(269.838524 171.504) scale(0.1 -0.1)">
     <use xlink:href="#DejaVuSans-Oblique-78" transform="translate(0 0.78125)"/>
     <use xlink:href="#DejaVuSans-32" transform="translate(59.179688 -15.625) scale(0.7)"/>
     <use xlink:href="#DejaVuSans-32" transform="translate(106.450195 0.78125)"/>
    </g>
   </g>
   <g id="text_33">
    <!-- $x_23$ -->
    <g transform="translate(269.838547 171.504) scale(0.1 -0.1)">
     <use xlink:href="#DejaVuSans-Oblique-78" transform="translate(0 0.78125)"/>
     <use xlink:href="#DejaVuSans-32" transform="translate(59.179688 -15.625) scale(0.7)"/>
     <use xlink:href="#DejaVuSans-33" transform="translate(106.450195 0.78125)"/>
    </g>
   </g>
   <g id="text_34">
    <!-- $x_24$ -->
    <g transform="translate(269.838534 171.504) scale(0.1 -0.1)">
     <use xlink:href="#DejaVuSans-Oblique-78" transform="translate(0 0.09375)"/>
     <use xlink:href="#DejaVuSans-32" transform="translate(59.179688 -16.3125) scale(0.7)"/>
     <use xlink:href="#DejaVuSans-34" transform="translate(106.450195 0.09375)"/>
    </g>
   </g>
   <g id="text_35">
    <!-- $x_25$ -->
    <g transform="translate(269.838541 171.504) scale(0.1 -0.1)">
     <use xlink:href="#DejaVuSans-Oblique-78" transform="translate(0 0.09375)"/>
     <use xlink:href="#DejaVuSans-32" transform="translate(59.179688 -16.3125) scale(0.7)"/>
     <use xlink:href="#DejaVuSans-35" transform="translate(106.450195 0.09375)"/>
    </g>
   </g>
   <g id="text_36">
    <!-- $x_26$ -->
    <g transform="translate(269.838537 171.504) scale(0.1 -0.1)">
     <use xlink:href="#DejaVuSans-Oblique-78" transform="translate(0 0.78125)"/>
     <use xlink:href="#DejaVuSans-32" transform="translate(59.179688 -15.625) scale(0.7)"/>
     <use xlink:href="#DejaVuSans-36" transform="translate(106.450195 0.78125)"/>
    </g>
   </g>
   <g id="text_37">
    <!-- $x_27$ -->
    <g transform="translate(269.83854 171.504) scale(0.1 -0.1)">
     <use xlink:href="#DejaVuSans-Oblique-78" transform="translate(0 0.09375)"/>
     <use xlink:href="#DejaVuSans-32" transform="translate(59.179688 -16.3125) scale(0.7)"/>
     <use xlink:href="#DejaVuSans-37" transform="translate(106.450195 0.09375)"/>
    </g>
   </g>
   <g id="text_38">
    <!-- $x_28$ -->
    <g transform="translate(269.838538 171.504) scale(0.1 -0.1)">
     <use xlink:href="#DejaVuSans-Oblique-78" transform="translate(0 0.78125)"/>
     <use xlink:href="#DejaVuSans-32" transform="translate(59.179688 -15.625) scale(0.7)"/>
     <use xlink:href="#DejaVuSans-38" transform="translate(106.450195 0.78125)"/>
    </g>
   </g>
   <g id="text_39">
    <!-- $x_29$ -->
    <g transform="translate(269.838539 171.504) scale(0.1 -0.1)">
     <use xlink:href="#DejaVuSans-Oblique-78" transform="translate(0 0.78125)"/>
     <use xlink:href="#DejaVuSans-32" transform="translate(59.179688 -15.625) scale(0.7)"/>
     <use xlink:href="#DejaVuSans-39" transform="translate(106.450195 0.78125)"/>
    </g>
   </g>
   <g id="text_40">
    <!-- $x_30$ -->
    <g transform="translate(269.838539 171.504) scale(0.1 -0.1)">
     <use xlink:href="#DejaVuSans-Oblique-78" transform="translate(0 0.78125)"/>
     <use xlink:href="#DejaVuSans-33" transform="translate(59.179688 -15.625) scale(0.7)"/>
     <use xlink:href="#DejaVuSans-30" transform="translate(106.450195 0.78125)"/>
    </g>
   </g>
   <g id="text_41">
    <!-- $x_31$ -->
    <g transform="translate(269.838539 171.504) scale(0.1 -0.1)">
     <use xlink:href="#DejaVuSans-Oblique-78" transform="translate(0 0.09375)"/>
     <use xlink:href="#DejaVuSans-33" transform="translate(59.179688 -16.3125) scale(0.7)"/>
     <use xlink:href="#DejaVuSans-31" transform="translate(106.450195 0.09375)"/>
    </g>
   </g>
  </g>
 </g>
 <defs>
  <clipPath id="p4a7c214a30">
   <rect x="10.8" y="10.8" width="439.2" height="324"/>
  </clipPath>
 </defs>
</svg>
