<?xml version="1.0" encoding="utf-8" standalone="no"?>
<!DOCTYPE svg PUBLIC "-//W3C//DTD SVG 1.1//EN"
  "http://www.w3.org/Graphics/SVG/1.1/DTD/svg11.dtd">
<svg xmlns:xlink="http://www.w3.org/1999/xlink" width="460.8pt" height="345.6pt" viewBox="0 0 460.8 345.6" xmlns="http://www.w3.org/2000/svg" version="1.1">
 <metadata>
  <rdf:RDF xmlns:dc="http://purl.org/dc/elements/1.1/" xmlns:cc="http://creativecommons.org/ns#" xmlns:rdf="http://www.w3.org/1999/02/22-rdf-syntax-ns#">
   <cc:Work>
    <dc:type rdf:resource="http://purl.org/dc/dcmitype/StillImage"/>
    <dc:date>2023-10-03T17:38:22.142886</dc:date>
    <dc:format>image/svg+xml</dc:format>
    <dc:creator>
     <cc:Agent>
      <dc:title>Matplotlib v3.7.1, https://matplotlib.org/</dc:title>
     </cc:Agent>
    </dc:creator>
   </cc:Work>
  </rdf:RDF>
 </metadata>
 <defs>
  <style type="text/css">*{stroke-linejoin: round; stroke-linecap: butt}</style>
 </defs>
 <g id="figure_1">
  <g id="patch_1">
   <path d="M 0 345.6 
L 460.8 345.6 
L 460.8 0 
L 0 0 
z
" style="fill: #ffffff"/>
  </g>
  <g id="axes_1">
   <g id="patch_2">
    <path d="M 21.33 328.68 
L 443.655 328.68 
L 443.655 14.76 
L 21.33 14.76 
z
" style="fill: #ffffff"/>
   </g>
   <g id="PathCollection_1">
    <defs>
     <path id="md72b745090" d="M 0 3 
C 0.795609 3 1.55874 2.683901 2.12132 2.12132 
C 2.683901 1.55874 3 0.795609 3 0 
C 3 -0.795609 2.683901 -1.55874 2.12132 -2.12132 
C 1.55874 -2.683901 0.795609 -3 0 -3 
C -0.795609 -3 -1.55874 -2.683901 -2.12132 -2.12132 
C -2.683901 -1.55874 -3 -0.795609 -3 0 
C -3 0.795609 -2.683901 1.55874 -2.12132 2.12132 
C -1.55874 2.683901 -0.795609 3 0 3 
z
" style="stroke: #008000"/>
    </defs>
    <g clip-path="url(#pcd64771308)">
     <use xlink:href="#md72b745090" x="274.725" y="171.72" style="fill: #008000; stroke: #008000"/>
     <use xlink:href="#md72b745090" x="266.2785" y="171.72" style="fill: #008000; stroke: #008000"/>
     <use xlink:href="#md72b745090" x="262.39311" y="171.72" style="fill: #008000; stroke: #008000"/>
     <use xlink:href="#md72b745090" x="260.26547" y="171.72" style="fill: #008000; stroke: #008000"/>
     <use xlink:href="#md72b745090" x="259.009496" y="171.72" style="fill: #008000; stroke: #008000"/>
     <use xlink:href="#md72b745090" x="258.237888" y="171.72" style="fill: #008000; stroke: #008000"/>
     <use xlink:href="#md72b745090" x="257.752738" y="171.72" style="fill: #008000; stroke: #008000"/>
     <use xlink:href="#md72b745090" x="257.443368" y="171.72" style="fill: #008000; stroke: #008000"/>
     <use xlink:href="#md72b745090" x="257.244342" y="171.72" style="fill: #008000; stroke: #008000"/>
     <use xlink:href="#md72b745090" x="257.115586" y="171.72" style="fill: #008000; stroke: #008000"/>
     <use xlink:href="#md72b745090" x="257.031989" y="171.72" style="fill: #008000; stroke: #008000"/>
     <use xlink:href="#md72b745090" x="256.977587" y="171.72" style="fill: #008000; stroke: #008000"/>
     <use xlink:href="#md72b745090" x="256.94213" y="171.72" style="fill: #008000; stroke: #008000"/>
     <use xlink:href="#md72b745090" x="256.918998" y="171.72" style="fill: #008000; stroke: #008000"/>
     <use xlink:href="#md72b745090" x="256.903897" y="171.72" style="fill: #008000; stroke: #008000"/>
     <use xlink:href="#md72b745090" x="256.894036" y="171.72" style="fill: #008000; stroke: #008000"/>
     <use xlink:href="#md72b745090" x="256.887593" y="171.72" style="fill: #008000; stroke: #008000"/>
     <use xlink:href="#md72b745090" x="256.883384" y="171.72" style="fill: #008000; stroke: #008000"/>
     <use xlink:href="#md72b745090" x="256.880633" y="171.72" style="fill: #008000; stroke: #008000"/>
     <use xlink:href="#md72b745090" x="256.878836" y="171.72" style="fill: #008000; stroke: #008000"/>
     <use xlink:href="#md72b745090" x="256.877661" y="171.72" style="fill: #008000; stroke: #008000"/>
     <use xlink:href="#md72b745090" x="256.876894" y="171.72" style="fill: #008000; stroke: #008000"/>
     <use xlink:href="#md72b745090" x="256.876392" y="171.72" style="fill: #008000; stroke: #008000"/>
     <use xlink:href="#md72b745090" x="256.876064" y="171.72" style="fill: #008000; stroke: #008000"/>
     <use xlink:href="#md72b745090" x="256.87585" y="171.72" style="fill: #008000; stroke: #008000"/>
     <use xlink:href="#md72b745090" x="256.87571" y="171.72" style="fill: #008000; stroke: #008000"/>
     <use xlink:href="#md72b745090" x="256.875618" y="171.72" style="fill: #008000; stroke: #008000"/>
     <use xlink:href="#md72b745090" x="256.875558" y="171.72" style="fill: #008000; stroke: #008000"/>
     <use xlink:href="#md72b745090" x="256.875519" y="171.72" style="fill: #008000; stroke: #008000"/>
     <use xlink:href="#md72b745090" x="256.875493" y="171.72" style="fill: #008000; stroke: #008000"/>
     <use xlink:href="#md72b745090" x="256.875477" y="171.72" style="fill: #008000; stroke: #008000"/>
     <use xlink:href="#md72b745090" x="256.875466" y="171.72" style="fill: #008000; stroke: #008000"/>
     <use xlink:href="#md72b745090" x="256.875459" y="171.72" style="fill: #008000; stroke: #008000"/>
     <use xlink:href="#md72b745090" x="256.875454" y="171.72" style="fill: #008000; stroke: #008000"/>
     <use xlink:href="#md72b745090" x="256.875451" y="171.72" style="fill: #008000; stroke: #008000"/>
     <use xlink:href="#md72b745090" x="256.875449" y="171.72" style="fill: #008000; stroke: #008000"/>
     <use xlink:href="#md72b745090" x="256.875448" y="171.72" style="fill: #008000; stroke: #008000"/>
     <use xlink:href="#md72b745090" x="256.875447" y="171.72" style="fill: #008000; stroke: #008000"/>
     <use xlink:href="#md72b745090" x="256.875446" y="171.72" style="fill: #008000; stroke: #008000"/>
     <use xlink:href="#md72b745090" x="256.875446" y="171.72" style="fill: #008000; stroke: #008000"/>
     <use xlink:href="#md72b745090" x="256.875446" y="171.72" style="fill: #008000; stroke: #008000"/>
     <use xlink:href="#md72b745090" x="256.875446" y="171.72" style="fill: #008000; stroke: #008000"/>
    </g>
   </g>
   <g id="matplotlib.axis_1">
    <g id="xtick_1">
     <g id="line2d_1">
      <defs>
       <path id="mc539e6b1aa" d="M 0 0 
L 0 3.5 
" style="stroke: #000000; stroke-width: 0.8"/>
      </defs>
      <g>
       <use xlink:href="#mc539e6b1aa" x="21.33" y="171.72" style="stroke: #000000; stroke-width: 0.8"/>
      </g>
     </g>
     <g id="text_1">
      <!-- −15 -->
      <g transform="translate(10.777656 186.318437) scale(0.1 -0.1)">
       <defs>
        <path id="DejaVuSans-2212" d="M 678 2272 
L 4684 2272 
L 4684 1741 
L 678 1741 
L 678 2272 
z
" transform="scale(0.015625)"/>
        <path id="DejaVuSans-31" d="M 794 531 
L 1825 531 
L 1825 4091 
L 703 3866 
L 703 4441 
L 1819 4666 
L 2450 4666 
L 2450 531 
L 3481 531 
L 3481 0 
L 794 0 
L 794 531 
z
" transform="scale(0.015625)"/>
        <path id="DejaVuSans-35" d="M 691 4666 
L 3169 4666 
L 3169 4134 
L 1269 4134 
L 1269 2991 
Q 1406 3038 1543 3061 
Q 1681 3084 1819 3084 
Q 2600 3084 3056 2656 
Q 3513 2228 3513 1497 
Q 3513 744 3044 326 
Q 2575 -91 1722 -91 
Q 1428 -91 1123 -41 
Q 819 9 494 109 
L 494 744 
Q 775 591 1075 516 
Q 1375 441 1709 441 
Q 2250 441 2565 725 
Q 2881 1009 2881 1497 
Q 2881 1984 2565 2268 
Q 2250 2553 1709 2553 
Q 1456 2553 1204 2497 
Q 953 2441 691 2322 
L 691 4666 
z
" transform="scale(0.015625)"/>
       </defs>
       <use xlink:href="#DejaVuSans-2212"/>
       <use xlink:href="#DejaVuSans-31" x="83.789062"/>
       <use xlink:href="#DejaVuSans-35" x="147.412109"/>
      </g>
     </g>
    </g>
    <g id="xtick_2">
     <g id="line2d_2">
      <g>
       <use xlink:href="#mc539e6b1aa" x="91.7175" y="171.72" style="stroke: #000000; stroke-width: 0.8"/>
      </g>
     </g>
     <g id="text_2">
      <!-- −10 -->
      <g transform="translate(81.165156 186.318437) scale(0.1 -0.1)">
       <defs>
        <path id="DejaVuSans-30" d="M 2034 4250 
Q 1547 4250 1301 3770 
Q 1056 3291 1056 2328 
Q 1056 1369 1301 889 
Q 1547 409 2034 409 
Q 2525 409 2770 889 
Q 3016 1369 3016 2328 
Q 3016 3291 2770 3770 
Q 2525 4250 2034 4250 
z
M 2034 4750 
Q 2819 4750 3233 4129 
Q 3647 3509 3647 2328 
Q 3647 1150 3233 529 
Q 2819 -91 2034 -91 
Q 1250 -91 836 529 
Q 422 1150 422 2328 
Q 422 3509 836 4129 
Q 1250 4750 2034 4750 
z
" transform="scale(0.015625)"/>
       </defs>
       <use xlink:href="#DejaVuSans-2212"/>
       <use xlink:href="#DejaVuSans-31" x="83.789062"/>
       <use xlink:href="#DejaVuSans-30" x="147.412109"/>
      </g>
     </g>
    </g>
    <g id="xtick_3">
     <g id="line2d_3">
      <g>
       <use xlink:href="#mc539e6b1aa" x="162.105" y="171.72" style="stroke: #000000; stroke-width: 0.8"/>
      </g>
     </g>
     <g id="text_3">
      <!-- −5 -->
      <g transform="translate(154.733906 186.318437) scale(0.1 -0.1)">
       <use xlink:href="#DejaVuSans-2212"/>
       <use xlink:href="#DejaVuSans-35" x="83.789062"/>
      </g>
     </g>
    </g>
    <g id="xtick_4">
     <g id="line2d_4">
      <g>
       <use xlink:href="#mc539e6b1aa" x="232.4925" y="171.72" style="stroke: #000000; stroke-width: 0.8"/>
      </g>
     </g>
     <g id="text_4">
      <!-- 0 -->
      <g transform="translate(229.31125 186.318437) scale(0.1 -0.1)">
       <use xlink:href="#DejaVuSans-30"/>
      </g>
     </g>
    </g>
    <g id="xtick_5">
     <g id="line2d_5">
      <g>
       <use xlink:href="#mc539e6b1aa" x="302.88" y="171.72" style="stroke: #000000; stroke-width: 0.8"/>
      </g>
     </g>
     <g id="text_5">
      <!-- 5 -->
      <g transform="translate(299.69875 186.318437) scale(0.1 -0.1)">
       <use xlink:href="#DejaVuSans-35"/>
      </g>
     </g>
    </g>
    <g id="xtick_6">
     <g id="line2d_6">
      <g>
       <use xlink:href="#mc539e6b1aa" x="373.2675" y="171.72" style="stroke: #000000; stroke-width: 0.8"/>
      </g>
     </g>
     <g id="text_6">
      <!-- 10 -->
      <g transform="translate(366.905 186.318437) scale(0.1 -0.1)">
       <use xlink:href="#DejaVuSans-31"/>
       <use xlink:href="#DejaVuSans-30" x="63.623047"/>
      </g>
     </g>
    </g>
    <g id="xtick_7">
     <g id="line2d_7">
      <g>
       <use xlink:href="#mc539e6b1aa" x="443.655" y="171.72" style="stroke: #000000; stroke-width: 0.8"/>
      </g>
     </g>
     <g id="text_7">
      <!-- 15 -->
      <g transform="translate(437.2925 186.318437) scale(0.1 -0.1)">
       <use xlink:href="#DejaVuSans-31"/>
       <use xlink:href="#DejaVuSans-35" x="63.623047"/>
      </g>
     </g>
    </g>
   </g>
   <g id="matplotlib.axis_2">
    <g id="ytick_1">
     <g id="line2d_8">
      <defs>
       <path id="m2851adf998" d="M 0 0 
L -3.5 0 
" style="stroke: #000000; stroke-width: 0.8"/>
      </defs>
      <g>
       <use xlink:href="#m2851adf998" x="232.4925" y="328.68" style="stroke: #000000; stroke-width: 0.8"/>
      </g>
     </g>
     <g id="text_8">
      <!-- −15 -->
      <g transform="translate(204.387812 332.479219) scale(0.1 -0.1)">
       <use xlink:href="#DejaVuSans-2212"/>
       <use xlink:href="#DejaVuSans-31" x="83.789062"/>
       <use xlink:href="#DejaVuSans-35" x="147.412109"/>
      </g>
     </g>
    </g>
    <g id="ytick_2">
     <g id="line2d_9">
      <g>
       <use xlink:href="#m2851adf998" x="232.4925" y="276.36" style="stroke: #000000; stroke-width: 0.8"/>
      </g>
     </g>
     <g id="text_9">
      <!-- −10 -->
      <g transform="translate(204.387812 280.159219) scale(0.1 -0.1)">
       <use xlink:href="#DejaVuSans-2212"/>
       <use xlink:href="#DejaVuSans-31" x="83.789062"/>
       <use xlink:href="#DejaVuSans-30" x="147.412109"/>
      </g>
     </g>
    </g>
    <g id="ytick_3">
     <g id="line2d_10">
      <g>
       <use xlink:href="#m2851adf998" x="232.4925" y="224.04" style="stroke: #000000; stroke-width: 0.8"/>
      </g>
     </g>
     <g id="text_10">
      <!-- −5 -->
      <g transform="translate(210.750312 227.839219) scale(0.1 -0.1)">
       <use xlink:href="#DejaVuSans-2212"/>
       <use xlink:href="#DejaVuSans-35" x="83.789062"/>
      </g>
     </g>
    </g>
    <g id="ytick_4">
     <g id="line2d_11">
      <g>
       <use xlink:href="#m2851adf998" x="232.4925" y="171.72" style="stroke: #000000; stroke-width: 0.8"/>
      </g>
     </g>
     <g id="text_11">
      <!-- 0 -->
      <g transform="translate(219.13 175.519219) scale(0.1 -0.1)">
       <use xlink:href="#DejaVuSans-30"/>
      </g>
     </g>
    </g>
    <g id="ytick_5">
     <g id="line2d_12">
      <g>
       <use xlink:href="#m2851adf998" x="232.4925" y="119.4" style="stroke: #000000; stroke-width: 0.8"/>
      </g>
     </g>
     <g id="text_12">
      <!-- 5 -->
      <g transform="translate(219.13 123.199219) scale(0.1 -0.1)">
       <use xlink:href="#DejaVuSans-35"/>
      </g>
     </g>
    </g>
    <g id="ytick_6">
     <g id="line2d_13">
      <g>
       <use xlink:href="#m2851adf998" x="232.4925" y="67.08" style="stroke: #000000; stroke-width: 0.8"/>
      </g>
     </g>
     <g id="text_13">
      <!-- 10 -->
      <g transform="translate(212.7675 70.879219) scale(0.1 -0.1)">
       <use xlink:href="#DejaVuSans-31"/>
       <use xlink:href="#DejaVuSans-30" x="63.623047"/>
      </g>
     </g>
    </g>
    <g id="ytick_7">
     <g id="line2d_14">
      <g>
       <use xlink:href="#m2851adf998" x="232.4925" y="14.76" style="stroke: #000000; stroke-width: 0.8"/>
      </g>
     </g>
     <g id="text_14">
      <!-- 15 -->
      <g transform="translate(212.7675 18.559219) scale(0.1 -0.1)">
       <use xlink:href="#DejaVuSans-31"/>
       <use xlink:href="#DejaVuSans-35" x="63.623047"/>
      </g>
     </g>
    </g>
   </g>
   <g id="line2d_15">
    <path d="M 170.318547 -1 
L 173.941937 22.099398 
L 177.746667 44.860148 
L 181.128649 63.808567 
L 184.510631 81.549118 
L 187.892613 98.081802 
L 191.274595 113.406619 
L 194.233829 125.825005 
L 197.193063 137.318617 
L 200.152297 147.887457 
L 202.688784 156.210417 
L 205.22527 163.853953 
L 207.761757 170.818063 
L 210.298243 177.102748 
L 212.411982 181.820979 
L 214.525721 186.067388 
L 216.639459 189.841973 
L 218.753198 193.144735 
L 220.866937 195.975674 
L 222.557928 197.900713 
L 224.248919 199.523785 
L 225.93991 200.84489 
L 227.630901 201.864028 
L 229.321892 202.581199 
L 231.012883 202.996403 
L 232.281126 203.109641 
L 233.549369 203.053022 
L 234.817613 202.826547 
L 236.508604 202.260359 
L 238.199595 201.392205 
L 239.890586 200.222083 
L 241.581577 198.749995 
L 243.272568 196.97594 
L 244.963559 194.899918 
L 246.65455 192.521929 
L 248.768288 189.124802 
L 250.882027 185.255852 
L 252.995766 180.915079 
L 255.109505 176.102482 
L 257.645991 169.70456 
L 260.182477 162.627213 
L 262.718964 154.87044 
L 265.25545 146.434241 
L 268.214685 135.733292 
L 271.173919 124.107569 
L 274.133153 111.557072 
L 277.092387 98.081802 
L 280.474369 81.549118 
L 283.856351 63.808567 
L 287.238333 44.860148 
L 290.620315 24.703862 
L 294.425045 0.584261 
L 294.666453 -1 
L 294.666453 -1 
" clip-path="url(#pcd64771308)" style="fill: none; stroke: #0000ff; stroke-width: 1.5; stroke-linecap: square"/>
   </g>
   <g id="patch_3">
    <path d="M 232.4925 328.68 
L 232.4925 14.76 
" style="fill: none; stroke: #000000; stroke-width: 0.8; stroke-linejoin: miter; stroke-linecap: square"/>
   </g>
   <g id="patch_4">
    <path d="M 443.655 328.68 
L 443.655 14.76 
" style="fill: none"/>
   </g>
   <g id="patch_5">
    <path d="M 21.33 171.72 
L 443.655 171.72 
" style="fill: none; stroke: #000000; stroke-width: 0.8; stroke-linejoin: miter; stroke-linecap: square"/>
   </g>
   <g id="patch_6">
    <path d="M 21.33 14.76 
L 443.655 14.76 
" style="fill: none"/>
   </g>
   <g id="text_15">
    <!-- $x_1$ -->
    <g transform="translate(276.13275 170.6736) scale(0.1 -0.1)">
     <defs>
      <path id="DejaVuSans-Oblique-78" d="M 3841 3500 
L 2234 1784 
L 3219 0 
L 2559 0 
L 1819 1388 
L 531 0 
L -166 0 
L 1556 1844 
L 641 3500 
L 1300 3500 
L 1972 2234 
L 3144 3500 
L 3841 3500 
z
" transform="scale(0.015625)"/>
     </defs>
     <use xlink:href="#DejaVuSans-Oblique-78" transform="translate(0 0.3125)"/>
     <use xlink:href="#DejaVuSans-31" transform="translate(59.179688 -16.09375) scale(0.7)"/>
    </g>
   </g>
   <g id="text_16">
    <!-- $x_2$ -->
    <g transform="translate(267.68625 170.6736) scale(0.1 -0.1)">
     <defs>
      <path id="DejaVuSans-32" d="M 1228 531 
L 3431 531 
L 3431 0 
L 469 0 
L 469 531 
Q 828 903 1448 1529 
Q 2069 2156 2228 2338 
Q 2531 2678 2651 2914 
Q 2772 3150 2772 3378 
Q 2772 3750 2511 3984 
Q 2250 4219 1831 4219 
Q 1534 4219 1204 4116 
Q 875 4013 500 3803 
L 500 4441 
Q 881 4594 1212 4672 
Q 1544 4750 1819 4750 
Q 2544 4750 2975 4387 
Q 3406 4025 3406 3419 
Q 3406 3131 3298 2873 
Q 3191 2616 2906 2266 
Q 2828 2175 2409 1742 
Q 1991 1309 1228 531 
z
" transform="scale(0.015625)"/>
     </defs>
     <use xlink:href="#DejaVuSans-Oblique-78" transform="translate(0 0.3125)"/>
     <use xlink:href="#DejaVuSans-32" transform="translate(59.179688 -16.09375) scale(0.7)"/>
    </g>
   </g>
   <g id="text_17">
    <!-- $x_3$ -->
    <g transform="translate(263.80086 170.6736) scale(0.1 -0.1)">
     <defs>
      <path id="DejaVuSans-33" d="M 2597 2516 
Q 3050 2419 3304 2112 
Q 3559 1806 3559 1356 
Q 3559 666 3084 287 
Q 2609 -91 1734 -91 
Q 1441 -91 1130 -33 
Q 819 25 488 141 
L 488 750 
Q 750 597 1062 519 
Q 1375 441 1716 441 
Q 2309 441 2620 675 
Q 2931 909 2931 1356 
Q 2931 1769 2642 2001 
Q 2353 2234 1838 2234 
L 1294 2234 
L 1294 2753 
L 1863 2753 
Q 2328 2753 2575 2939 
Q 2822 3125 2822 3475 
Q 2822 3834 2567 4026 
Q 2313 4219 1838 4219 
Q 1578 4219 1281 4162 
Q 984 4106 628 3988 
L 628 4550 
Q 988 4650 1302 4700 
Q 1616 4750 1894 4750 
Q 2613 4750 3031 4423 
Q 3450 4097 3450 3541 
Q 3450 3153 3228 2886 
Q 3006 2619 2597 2516 
z
" transform="scale(0.015625)"/>
     </defs>
     <use xlink:href="#DejaVuSans-Oblique-78" transform="translate(0 0.3125)"/>
     <use xlink:href="#DejaVuSans-33" transform="translate(59.179688 -16.09375) scale(0.7)"/>
    </g>
   </g>
   <g id="text_18">
    <!-- $x_4$ -->
    <g transform="translate(261.67322 170.6736) scale(0.1 -0.1)">
     <defs>
      <path id="DejaVuSans-34" d="M 2419 4116 
L 825 1625 
L 2419 1625 
L 2419 4116 
z
M 2253 4666 
L 3047 4666 
L 3047 1625 
L 3713 1625 
L 3713 1100 
L 3047 1100 
L 3047 0 
L 2419 0 
L 2419 1100 
L 313 1100 
L 313 1709 
L 2253 4666 
z
" transform="scale(0.015625)"/>
     </defs>
     <use xlink:href="#DejaVuSans-Oblique-78" transform="translate(0 0.3125)"/>
     <use xlink:href="#DejaVuSans-34" transform="translate(59.179688 -16.09375) scale(0.7)"/>
    </g>
   </g>
   <g id="text_19">
    <!-- $x_5$ -->
    <g transform="translate(260.417246 170.6736) scale(0.1 -0.1)">
     <use xlink:href="#DejaVuSans-Oblique-78" transform="translate(0 0.3125)"/>
     <use xlink:href="#DejaVuSans-35" transform="translate(59.179688 -16.09375) scale(0.7)"/>
    </g>
   </g>
   <g id="text_20">
    <!-- $x_6$ -->
    <g transform="translate(259.645638 170.6736) scale(0.1 -0.1)">
     <defs>
      <path id="DejaVuSans-36" d="M 2113 2584 
Q 1688 2584 1439 2293 
Q 1191 2003 1191 1497 
Q 1191 994 1439 701 
Q 1688 409 2113 409 
Q 2538 409 2786 701 
Q 3034 994 3034 1497 
Q 3034 2003 2786 2293 
Q 2538 2584 2113 2584 
z
M 3366 4563 
L 3366 3988 
Q 3128 4100 2886 4159 
Q 2644 4219 2406 4219 
Q 1781 4219 1451 3797 
Q 1122 3375 1075 2522 
Q 1259 2794 1537 2939 
Q 1816 3084 2150 3084 
Q 2853 3084 3261 2657 
Q 3669 2231 3669 1497 
Q 3669 778 3244 343 
Q 2819 -91 2113 -91 
Q 1303 -91 875 529 
Q 447 1150 447 2328 
Q 447 3434 972 4092 
Q 1497 4750 2381 4750 
Q 2619 4750 2861 4703 
Q 3103 4656 3366 4563 
z
" transform="scale(0.015625)"/>
     </defs>
     <use xlink:href="#DejaVuSans-Oblique-78" transform="translate(0 0.3125)"/>
     <use xlink:href="#DejaVuSans-36" transform="translate(59.179688 -16.09375) scale(0.7)"/>
    </g>
   </g>
   <g id="text_21">
    <!-- $x_7$ -->
    <g transform="translate(259.160488 170.6736) scale(0.1 -0.1)">
     <defs>
      <path id="DejaVuSans-37" d="M 525 4666 
L 3525 4666 
L 3525 4397 
L 1831 0 
L 1172 0 
L 2766 4134 
L 525 4134 
L 525 4666 
z
" transform="scale(0.015625)"/>
     </defs>
     <use xlink:href="#DejaVuSans-Oblique-78" transform="translate(0 0.3125)"/>
     <use xlink:href="#DejaVuSans-37" transform="translate(59.179688 -16.09375) scale(0.7)"/>
    </g>
   </g>
   <g id="text_22">
    <!-- $x_8$ -->
    <g transform="translate(258.851118 170.6736) scale(0.1 -0.1)">
     <defs>
      <path id="DejaVuSans-38" d="M 2034 2216 
Q 1584 2216 1326 1975 
Q 1069 1734 1069 1313 
Q 1069 891 1326 650 
Q 1584 409 2034 409 
Q 2484 409 2743 651 
Q 3003 894 3003 1313 
Q 3003 1734 2745 1975 
Q 2488 2216 2034 2216 
z
M 1403 2484 
Q 997 2584 770 2862 
Q 544 3141 544 3541 
Q 544 4100 942 4425 
Q 1341 4750 2034 4750 
Q 2731 4750 3128 4425 
Q 3525 4100 3525 3541 
Q 3525 3141 3298 2862 
Q 3072 2584 2669 2484 
Q 3125 2378 3379 2068 
Q 3634 1759 3634 1313 
Q 3634 634 3220 271 
Q 2806 -91 2034 -91 
Q 1263 -91 848 271 
Q 434 634 434 1313 
Q 434 1759 690 2068 
Q 947 2378 1403 2484 
z
M 1172 3481 
Q 1172 3119 1398 2916 
Q 1625 2713 2034 2713 
Q 2441 2713 2670 2916 
Q 2900 3119 2900 3481 
Q 2900 3844 2670 4047 
Q 2441 4250 2034 4250 
Q 1625 4250 1398 4047 
Q 1172 3844 1172 3481 
z
" transform="scale(0.015625)"/>
     </defs>
     <use xlink:href="#DejaVuSans-Oblique-78" transform="translate(0 0.3125)"/>
     <use xlink:href="#DejaVuSans-38" transform="translate(59.179688 -16.09375) scale(0.7)"/>
    </g>
   </g>
   <g id="text_23">
    <!-- $x_9$ -->
    <g transform="translate(258.652092 170.6736) scale(0.1 -0.1)">
     <defs>
      <path id="DejaVuSans-39" d="M 703 97 
L 703 672 
Q 941 559 1184 500 
Q 1428 441 1663 441 
Q 2288 441 2617 861 
Q 2947 1281 2994 2138 
Q 2813 1869 2534 1725 
Q 2256 1581 1919 1581 
Q 1219 1581 811 2004 
Q 403 2428 403 3163 
Q 403 3881 828 4315 
Q 1253 4750 1959 4750 
Q 2769 4750 3195 4129 
Q 3622 3509 3622 2328 
Q 3622 1225 3098 567 
Q 2575 -91 1691 -91 
Q 1453 -91 1209 -44 
Q 966 3 703 97 
z
M 1959 2075 
Q 2384 2075 2632 2365 
Q 2881 2656 2881 3163 
Q 2881 3666 2632 3958 
Q 2384 4250 1959 4250 
Q 1534 4250 1286 3958 
Q 1038 3666 1038 3163 
Q 1038 2656 1286 2365 
Q 1534 2075 1959 2075 
z
" transform="scale(0.015625)"/>
     </defs>
     <use xlink:href="#DejaVuSans-Oblique-78" transform="translate(0 0.3125)"/>
     <use xlink:href="#DejaVuSans-39" transform="translate(59.179688 -16.09375) scale(0.7)"/>
    </g>
   </g>
   <g id="text_24">
    <!-- $x_10$ -->
    <g transform="translate(258.523336 170.6736) scale(0.1 -0.1)">
     <use xlink:href="#DejaVuSans-Oblique-78" transform="translate(0 0.78125)"/>
     <use xlink:href="#DejaVuSans-31" transform="translate(59.179688 -15.625) scale(0.7)"/>
     <use xlink:href="#DejaVuSans-30" transform="translate(106.450195 0.78125)"/>
    </g>
   </g>
   <g id="text_25">
    <!-- $x_11$ -->
    <g transform="translate(258.439739 170.6736) scale(0.1 -0.1)">
     <use xlink:href="#DejaVuSans-Oblique-78" transform="translate(0 0.09375)"/>
     <use xlink:href="#DejaVuSans-31" transform="translate(59.179688 -16.3125) scale(0.7)"/>
     <use xlink:href="#DejaVuSans-31" transform="translate(106.450195 0.09375)"/>
    </g>
   </g>
   <g id="text_26">
    <!-- $x_12$ -->
    <g transform="translate(258.385337 170.6736) scale(0.1 -0.1)">
     <use xlink:href="#DejaVuSans-Oblique-78" transform="translate(0 0.78125)"/>
     <use xlink:href="#DejaVuSans-31" transform="translate(59.179688 -15.625) scale(0.7)"/>
     <use xlink:href="#DejaVuSans-32" transform="translate(106.450195 0.78125)"/>
    </g>
   </g>
   <g id="text_27">
    <!-- $x_13$ -->
    <g transform="translate(258.34988 170.6736) scale(0.1 -0.1)">
     <use xlink:href="#DejaVuSans-Oblique-78" transform="translate(0 0.78125)"/>
     <use xlink:href="#DejaVuSans-31" transform="translate(59.179688 -15.625) scale(0.7)"/>
     <use xlink:href="#DejaVuSans-33" transform="translate(106.450195 0.78125)"/>
    </g>
   </g>
   <g id="text_28">
    <!-- $x_14$ -->
    <g transform="translate(258.326748 170.6736) scale(0.1 -0.1)">
     <use xlink:href="#DejaVuSans-Oblique-78" transform="translate(0 0.09375)"/>
     <use xlink:href="#DejaVuSans-31" transform="translate(59.179688 -16.3125) scale(0.7)"/>
     <use xlink:href="#DejaVuSans-34" transform="translate(106.450195 0.09375)"/>
    </g>
   </g>
   <g id="text_29">
    <!-- $x_15$ -->
    <g transform="translate(258.311647 170.6736) scale(0.1 -0.1)">
     <use xlink:href="#DejaVuSans-Oblique-78" transform="translate(0 0.09375)"/>
     <use xlink:href="#DejaVuSans-31" transform="translate(59.179688 -16.3125) scale(0.7)"/>
     <use xlink:href="#DejaVuSans-35" transform="translate(106.450195 0.09375)"/>
    </g>
   </g>
   <g id="text_30">
    <!-- $x_16$ -->
    <g transform="translate(258.301786 170.6736) scale(0.1 -0.1)">
     <use xlink:href="#DejaVuSans-Oblique-78" transform="translate(0 0.78125)"/>
     <use xlink:href="#DejaVuSans-31" transform="translate(59.179688 -15.625) scale(0.7)"/>
     <use xlink:href="#DejaVuSans-36" transform="translate(106.450195 0.78125)"/>
    </g>
   </g>
   <g id="text_31">
    <!-- $x_17$ -->
    <g transform="translate(258.295343 170.6736) scale(0.1 -0.1)">
     <use xlink:href="#DejaVuSans-Oblique-78" transform="translate(0 0.09375)"/>
     <use xlink:href="#DejaVuSans-31" transform="translate(59.179688 -16.3125) scale(0.7)"/>
     <use xlink:href="#DejaVuSans-37" transform="translate(106.450195 0.09375)"/>
    </g>
   </g>
   <g id="text_32">
    <!-- $x_18$ -->
    <g transform="translate(258.291134 170.6736) scale(0.1 -0.1)">
     <use xlink:href="#DejaVuSans-Oblique-78" transform="translate(0 0.78125)"/>
     <use xlink:href="#DejaVuSans-31" transform="translate(59.179688 -15.625) scale(0.7)"/>
     <use xlink:href="#DejaVuSans-38" transform="translate(106.450195 0.78125)"/>
    </g>
   </g>
   <g id="text_33">
    <!-- $x_19$ -->
    <g transform="translate(258.288383 170.6736) scale(0.1 -0.1)">
     <use xlink:href="#DejaVuSans-Oblique-78" transform="translate(0 0.78125)"/>
     <use xlink:href="#DejaVuSans-31" transform="translate(59.179688 -15.625) scale(0.7)"/>
     <use xlink:href="#DejaVuSans-39" transform="translate(106.450195 0.78125)"/>
    </g>
   </g>
   <g id="text_34">
    <!-- $x_20$ -->
    <g transform="translate(258.286586 170.6736) scale(0.1 -0.1)">
     <use xlink:href="#DejaVuSans-Oblique-78" transform="translate(0 0.78125)"/>
     <use xlink:href="#DejaVuSans-32" transform="translate(59.179688 -15.625) scale(0.7)"/>
     <use xlink:href="#DejaVuSans-30" transform="translate(106.450195 0.78125)"/>
    </g>
   </g>
   <g id="text_35">
    <!-- $x_21$ -->
    <g transform="translate(258.285411 170.6736) scale(0.1 -0.1)">
     <use xlink:href="#DejaVuSans-Oblique-78" transform="translate(0 0.09375)"/>
     <use xlink:href="#DejaVuSans-32" transform="translate(59.179688 -16.3125) scale(0.7)"/>
     <use xlink:href="#DejaVuSans-31" transform="translate(106.450195 0.09375)"/>
    </g>
   </g>
   <g id="text_36">
    <!-- $x_22$ -->
    <g transform="translate(258.284644 170.6736) scale(0.1 -0.1)">
     <use xlink:href="#DejaVuSans-Oblique-78" transform="translate(0 0.78125)"/>
     <use xlink:href="#DejaVuSans-32" transform="translate(59.179688 -15.625) scale(0.7)"/>
     <use xlink:href="#DejaVuSans-32" transform="translate(106.450195 0.78125)"/>
    </g>
   </g>
   <g id="text_37">
    <!-- $x_23$ -->
    <g transform="translate(258.284142 170.6736) scale(0.1 -0.1)">
     <use xlink:href="#DejaVuSans-Oblique-78" transform="translate(0 0.78125)"/>
     <use xlink:href="#DejaVuSans-32" transform="translate(59.179688 -15.625) scale(0.7)"/>
     <use xlink:href="#DejaVuSans-33" transform="translate(106.450195 0.78125)"/>
    </g>
   </g>
   <g id="text_38">
    <!-- $x_24$ -->
    <g transform="translate(258.283814 170.6736) scale(0.1 -0.1)">
     <use xlink:href="#DejaVuSans-Oblique-78" transform="translate(0 0.09375)"/>
     <use xlink:href="#DejaVuSans-32" transform="translate(59.179688 -16.3125) scale(0.7)"/>
     <use xlink:href="#DejaVuSans-34" transform="translate(106.450195 0.09375)"/>
    </g>
   </g>
   <g id="text_39">
    <!-- $x_25$ -->
    <g transform="translate(258.2836 170.6736) scale(0.1 -0.1)">
     <use xlink:href="#DejaVuSans-Oblique-78" transform="translate(0 0.09375)"/>
     <use xlink:href="#DejaVuSans-32" transform="translate(59.179688 -16.3125) scale(0.7)"/>
     <use xlink:href="#DejaVuSans-35" transform="translate(106.450195 0.09375)"/>
    </g>
   </g>
   <g id="text_40">
    <!-- $x_26$ -->
    <g transform="translate(258.28346 170.6736) scale(0.1 -0.1)">
     <use xlink:href="#DejaVuSans-Oblique-78" transform="translate(0 0.78125)"/>
     <use xlink:href="#DejaVuSans-32" transform="translate(59.179688 -15.625) scale(0.7)"/>
     <use xlink:href="#DejaVuSans-36" transform="translate(106.450195 0.78125)"/>
    </g>
   </g>
   <g id="text_41">
    <!-- $x_27$ -->
    <g transform="translate(258.283368 170.6736) scale(0.1 -0.1)">
     <use xlink:href="#DejaVuSans-Oblique-78" transform="translate(0 0.09375)"/>
     <use xlink:href="#DejaVuSans-32" transform="translate(59.179688 -16.3125) scale(0.7)"/>
     <use xlink:href="#DejaVuSans-37" transform="translate(106.450195 0.09375)"/>
    </g>
   </g>
   <g id="text_42">
    <!-- $x_28$ -->
    <g transform="translate(258.283308 170.6736) scale(0.1 -0.1)">
     <use xlink:href="#DejaVuSans-Oblique-78" transform="translate(0 0.78125)"/>
     <use xlink:href="#DejaVuSans-32" transform="translate(59.179688 -15.625) scale(0.7)"/>
     <use xlink:href="#DejaVuSans-38" transform="translate(106.450195 0.78125)"/>
    </g>
   </g>
   <g id="text_43">
    <!-- $x_29$ -->
    <g transform="translate(258.283269 170.6736) scale(0.1 -0.1)">
     <use xlink:href="#DejaVuSans-Oblique-78" transform="translate(0 0.78125)"/>
     <use xlink:href="#DejaVuSans-32" transform="translate(59.179688 -15.625) scale(0.7)"/>
     <use xlink:href="#DejaVuSans-39" transform="translate(106.450195 0.78125)"/>
    </g>
   </g>
   <g id="text_44">
    <!-- $x_30$ -->
    <g transform="translate(258.283243 170.6736) scale(0.1 -0.1)">
     <use xlink:href="#DejaVuSans-Oblique-78" transform="translate(0 0.78125)"/>
     <use xlink:href="#DejaVuSans-33" transform="translate(59.179688 -15.625) scale(0.7)"/>
     <use xlink:href="#DejaVuSans-30" transform="translate(106.450195 0.78125)"/>
    </g>
   </g>
   <g id="text_45">
    <!-- $x_31$ -->
    <g transform="translate(258.283227 170.6736) scale(0.1 -0.1)">
     <use xlink:href="#DejaVuSans-Oblique-78" transform="translate(0 0.09375)"/>
     <use xlink:href="#DejaVuSans-33" transform="translate(59.179688 -16.3125) scale(0.7)"/>
     <use xlink:href="#DejaVuSans-31" transform="translate(106.450195 0.09375)"/>
    </g>
   </g>
   <g id="text_46">
    <!-- $x_32$ -->
    <g transform="translate(258.283216 170.6736) scale(0.1 -0.1)">
     <use xlink:href="#DejaVuSans-Oblique-78" transform="translate(0 0.78125)"/>
     <use xlink:href="#DejaVuSans-33" transform="translate(59.179688 -15.625) scale(0.7)"/>
     <use xlink:href="#DejaVuSans-32" transform="translate(106.450195 0.78125)"/>
    </g>
   </g>
   <g id="text_47">
    <!-- $x_33$ -->
    <g transform="translate(258.283209 170.6736) scale(0.1 -0.1)">
     <use xlink:href="#DejaVuSans-Oblique-78" transform="translate(0 0.78125)"/>
     <use xlink:href="#DejaVuSans-33" transform="translate(59.179688 -15.625) scale(0.7)"/>
     <use xlink:href="#DejaVuSans-33" transform="translate(106.450195 0.78125)"/>
    </g>
   </g>
   <g id="text_48">
    <!-- $x_34$ -->
    <g transform="translate(258.283204 170.6736) scale(0.1 -0.1)">
     <use xlink:href="#DejaVuSans-Oblique-78" transform="translate(0 0.09375)"/>
     <use xlink:href="#DejaVuSans-33" transform="translate(59.179688 -16.3125) scale(0.7)"/>
     <use xlink:href="#DejaVuSans-34" transform="translate(106.450195 0.09375)"/>
    </g>
   </g>
   <g id="text_49">
    <!-- $x_35$ -->
    <g transform="translate(258.283201 170.6736) scale(0.1 -0.1)">
     <use xlink:href="#DejaVuSans-Oblique-78" transform="translate(0 0.09375)"/>
     <use xlink:href="#DejaVuSans-33" transform="translate(59.179688 -16.3125) scale(0.7)"/>
     <use xlink:href="#DejaVuSans-35" transform="translate(106.450195 0.09375)"/>
    </g>
   </g>
   <g id="text_50">
    <!-- $x_36$ -->
    <g transform="translate(258.283199 170.6736) scale(0.1 -0.1)">
     <use xlink:href="#DejaVuSans-Oblique-78" transform="translate(0 0.78125)"/>
     <use xlink:href="#DejaVuSans-33" transform="translate(59.179688 -15.625) scale(0.7)"/>
     <use xlink:href="#DejaVuSans-36" transform="translate(106.450195 0.78125)"/>
    </g>
   </g>
   <g id="text_51">
    <!-- $x_37$ -->
    <g transform="translate(258.283198 170.6736) scale(0.1 -0.1)">
     <use xlink:href="#DejaVuSans-Oblique-78" transform="translate(0 0.09375)"/>
     <use xlink:href="#DejaVuSans-33" transform="translate(59.179688 -16.3125) scale(0.7)"/>
     <use xlink:href="#DejaVuSans-37" transform="translate(106.450195 0.09375)"/>
    </g>
   </g>
   <g id="text_52">
    <!-- $x_38$ -->
    <g transform="translate(258.283197 170.6736) scale(0.1 -0.1)">
     <use xlink:href="#DejaVuSans-Oblique-78" transform="translate(0 0.78125)"/>
     <use xlink:href="#DejaVuSans-33" transform="translate(59.179688 -15.625) scale(0.7)"/>
     <use xlink:href="#DejaVuSans-38" transform="translate(106.450195 0.78125)"/>
    </g>
   </g>
   <g id="text_53">
    <!-- $x_39$ -->
    <g transform="translate(258.283196 170.6736) scale(0.1 -0.1)">
     <use xlink:href="#DejaVuSans-Oblique-78" transform="translate(0 0.78125)"/>
     <use xlink:href="#DejaVuSans-33" transform="translate(59.179688 -15.625) scale(0.7)"/>
     <use xlink:href="#DejaVuSans-39" transform="translate(106.450195 0.78125)"/>
    </g>
   </g>
   <g id="text_54">
    <!-- $x_40$ -->
    <g transform="translate(258.283196 170.6736) scale(0.1 -0.1)">
     <use xlink:href="#DejaVuSans-Oblique-78" transform="translate(0 0.78125)"/>
     <use xlink:href="#DejaVuSans-34" transform="translate(59.179688 -15.625) scale(0.7)"/>
     <use xlink:href="#DejaVuSans-30" transform="translate(106.450195 0.78125)"/>
    </g>
   </g>
   <g id="text_55">
    <!-- $x_41$ -->
    <g transform="translate(258.283196 170.6736) scale(0.1 -0.1)">
     <use xlink:href="#DejaVuSans-Oblique-78" transform="translate(0 0.09375)"/>
     <use xlink:href="#DejaVuSans-34" transform="translate(59.179688 -16.3125) scale(0.7)"/>
     <use xlink:href="#DejaVuSans-31" transform="translate(106.450195 0.09375)"/>
    </g>
   </g>
   <g id="text_56">
    <!-- $x_42$ -->
    <g transform="translate(258.283196 170.6736) scale(0.1 -0.1)">
     <use xlink:href="#DejaVuSans-Oblique-78" transform="translate(0 0.78125)"/>
     <use xlink:href="#DejaVuSans-34" transform="translate(59.179688 -15.625) scale(0.7)"/>
     <use xlink:href="#DejaVuSans-32" transform="translate(106.450195 0.78125)"/>
    </g>
   </g>
  </g>
 </g>
 <defs>
  <clipPath id="pcd64771308">
   <rect x="21.33" y="14.76" width="422.325" height="313.92"/>
  </clipPath>
 </defs>
</svg>
